<svg version="1.1" id="Layer_1" xmlns="http://www.w3.org/2000/svg" xmlns:xlink="http://www.w3.org/1999/xlink" x="0px" y="0px"
	 width="100%" viewBox="0 0 660 673" enable-background="new 0 0 660 673" xml:space="preserve">
<path fill="#47704C" opacity="1.000000" stroke="none" 
	d="
M661.000000,265.000000 
	C661.000000,401.666656 661.000000,537.833313 661.000000,674.000000 
	C441.000031,674.000000 221.000092,674.000000 1.000096,674.000000 
	C1.000064,449.666748 1.000064,225.333466 1.000032,1.000156 
	C220.999893,1.000104 440.999786,1.000104 660.999878,1.000052 
	C661.000000,88.833336 661.000000,176.666672 661.000000,265.000000 
M297.666443,658.902954 
	C304.899994,664.404846 312.833313,667.293396 322.109619,666.073120 
	C325.549713,665.620605 329.122314,665.740967 332.594391,666.050110 
	C341.824615,666.871887 350.137329,664.534607 358.167999,660.020935 
	C374.036285,651.101746 383.727783,638.863464 383.118866,619.587402 
	C382.559540,601.880859 382.673096,584.132935 383.198120,566.424255 
	C383.357819,561.038757 385.424652,555.530151 387.608948,550.508972 
	C388.164520,549.231812 392.501007,549.447632 395.120911,549.248108 
	C403.760162,548.589844 412.408875,548.055603 420.066223,547.540222 
	C422.723663,555.537781 419.191101,562.588745 421.705750,569.927979 
	C423.618073,575.509338 422.954376,581.917725 424.061859,587.841309 
	C426.840546,602.704102 436.608795,613.380310 447.026398,623.193298 
	C453.739929,629.517151 463.172241,630.978760 471.968262,630.711304 
	C480.198059,630.461121 488.418793,628.081970 496.529480,626.158936 
	C509.599701,623.060059 518.389404,614.261597 524.901917,603.111694 
	C533.694397,588.058472 533.147705,571.236084 533.209656,554.616699 
	C533.256775,541.958374 532.883667,529.294800 533.160645,516.643738 
	C533.224792,513.714966 534.324158,509.744415 536.405579,508.106567 
	C545.948730,500.597198 556.101013,493.869110 565.863892,486.630157 
	C581.762207,474.841797 595.392151,460.618317 607.296570,444.968109 
	C634.142456,409.674744 649.623657,369.682281 652.774658,325.443115 
	C654.256287,304.641144 653.781677,283.612305 649.812317,262.993195 
	C643.496399,230.184570 632.616089,198.980667 616.011230,169.826660 
	C599.742004,141.262115 579.975220,115.589111 555.838440,93.166832 
	C541.408936,79.762299 526.083801,67.676155 509.557922,57.016792 
	C489.706024,44.212132 468.586487,34.012905 446.400879,26.009005 
	C414.378845,14.456397 381.049744,9.293756 347.267578,8.275331 
	C322.755554,7.536372 298.157104,9.073602 273.616882,10.076727 
	C258.618805,10.689801 244.063828,14.042595 229.804642,18.869829 
	C220.210480,22.117786 212.540817,27.359407 207.275055,36.148026 
	C196.297134,54.470291 192.231674,74.890076 189.041687,95.567436 
	C188.150497,101.344063 188.544403,101.685303 193.962784,99.457535 
	C207.791168,93.772003 221.379059,87.483887 235.313065,82.081436 
	C241.020203,79.868675 247.341751,79.126549 253.456039,78.184113 
	C254.545670,78.016174 257.068024,80.140640 257.077148,81.222221 
	C257.110199,85.135941 256.353180,89.056221 255.895859,92.974205 
	C253.931503,109.802658 250.971283,126.589600 250.266769,143.470657 
	C249.464233,162.700256 250.539764,182.017654 251.083847,201.288834 
	C251.269333,207.859039 252.696609,214.396515 252.841217,220.964691 
	C252.940491,225.474274 254.293564,230.292358 251.732162,235.192764 
	C249.259949,233.832291 246.798767,233.177612 245.390671,231.589325 
	C236.335373,221.375259 229.977890,209.501068 224.922195,196.902252 
	C220.396805,185.624924 216.030853,174.283478 211.481567,163.015930 
	C208.442734,155.489380 207.103683,154.937317 199.227722,156.861908 
	C182.510696,160.946945 169.084167,171.199188 155.132568,180.425583 
	C146.084091,186.409439 137.310089,192.807693 128.278580,198.818130 
	C124.607735,201.261047 122.766861,200.425186 121.951569,195.894028 
	C120.441231,187.500092 118.298790,179.048691 118.224525,170.605331 
	C118.093651,155.725388 118.457375,140.730377 120.223991,125.976318 
	C121.913620,111.865227 125.544525,97.976311 128.541763,84.036949 
	C129.799072,78.189499 131.621826,72.463623 133.420944,65.820610 
	C131.288620,66.646004 130.079407,66.816948 129.264435,67.475662 
	C121.447342,73.793884 113.228020,79.711739 106.042328,86.689987 
	C96.421623,96.032967 87.358932,105.990410 78.522018,116.091148 
	C65.692787,130.755173 55.244907,147.129868 45.979496,164.222778 
	C30.764315,192.291870 19.490767,221.909454 13.546141,253.292480 
	C10.754950,268.027802 8.871469,283.073090 8.280901,298.045135 
	C7.776487,310.833008 6.579404,323.766663 8.867680,336.618591 
	C9.608132,340.777252 8.567925,345.235718 9.160145,349.441895 
	C10.154192,356.502014 11.159345,363.675171 13.312508,370.433533 
	C17.688972,384.170349 22.210056,397.926483 27.822790,411.187378 
	C34.695271,427.424622 44.228039,442.223511 55.872856,455.561127 
	C59.742668,459.993469 63.406624,464.664795 67.692917,468.660126 
	C73.883888,474.430908 80.694092,479.531891 86.992439,485.194153 
	C97.851929,494.956879 110.043922,502.483917 123.478310,508.135529 
	C124.613701,508.613159 125.826309,510.446625 125.877930,511.696655 
	C126.110840,517.336914 125.732437,523.001892 125.949982,528.643494 
	C126.653358,546.884338 124.605591,565.185425 127.175194,583.382568 
	C130.110947,604.172607 141.239609,618.721436 160.825470,626.223450 
	C166.707291,628.476379 173.258545,628.989624 179.509415,630.269165 
	C189.686600,632.352478 199.210037,629.783508 208.068588,625.223450 
	C217.801300,620.213623 223.998291,611.468750 228.911423,602.015564 
	C235.075226,590.155945 238.055069,577.394958 238.003296,563.976440 
	C237.983047,558.726807 238.000000,553.477112 238.000000,547.546021 
	C248.679626,548.071045 258.445221,548.428406 268.181732,549.168274 
	C269.568420,549.273743 271.569733,551.000732 271.995331,552.376648 
	C273.917053,558.589294 276.473755,564.893799 276.773956,571.260803 
	C277.434692,585.274963 276.854492,599.346863 276.818237,613.395264 
	C276.807343,617.610779 276.799164,621.832581 277.011688,626.040344 
	C277.212677,630.020325 276.880585,634.294617 278.230469,637.896973 
	C281.690186,647.129700 289.943878,652.374573 297.666443,658.902954 
M132.478745,65.867874 
	C132.571487,65.780640 132.734207,65.695831 132.737350,65.605476 
	C132.740509,65.514313 132.585342,65.417648 132.499542,65.323387 
	C132.406464,65.410515 132.313385,65.497643 132.478745,65.867874 
z"/>
<path fill="#FF741F" opacity="1.000000" stroke="none" 
	d="
M297.359436,658.701904 
	C289.943878,652.374573 281.690186,647.129700 278.230469,637.896973 
	C276.880585,634.294617 277.212677,630.020325 277.011688,626.040344 
	C276.799164,621.832581 276.807343,617.610779 276.818237,613.395264 
	C276.854492,599.346863 277.434692,585.274963 276.773956,571.260803 
	C276.473755,564.893799 273.917053,558.589294 271.995331,552.376648 
	C271.569733,551.000732 269.568420,549.273743 268.181732,549.168274 
	C258.445221,548.428406 248.679626,548.071045 238.000000,547.546021 
	C238.000000,553.477112 237.983047,558.726807 238.003296,563.976440 
	C238.055069,577.394958 235.075226,590.155945 228.911423,602.015564 
	C223.998291,611.468750 217.801300,620.213623 208.068588,625.223450 
	C199.210037,629.783508 189.686600,632.352478 179.509415,630.269165 
	C173.258545,628.989624 166.707291,628.476379 160.825470,626.223450 
	C141.239609,618.721436 130.110947,604.172607 127.175194,583.382568 
	C124.605591,565.185425 126.653358,546.884338 125.949982,528.643494 
	C125.732437,523.001892 126.110840,517.336914 125.877930,511.696655 
	C125.826309,510.446625 124.613701,508.613159 123.478310,508.135529 
	C110.043922,502.483917 97.851929,494.956879 86.992439,485.194153 
	C80.694092,479.531891 73.883888,474.430908 67.692917,468.660126 
	C63.406624,464.664795 59.742668,459.993469 55.872856,455.561127 
	C44.228039,442.223511 34.695271,427.424622 27.822790,411.187378 
	C22.210056,397.926483 17.688972,384.170349 13.312508,370.433533 
	C11.159345,363.675171 10.154192,356.502014 9.160145,349.441895 
	C8.567925,345.235718 9.608132,340.777252 8.867680,336.618591 
	C6.579404,323.766663 7.776487,310.833008 8.280901,298.045135 
	C8.871469,283.073090 10.754950,268.027802 13.546141,253.292480 
	C19.490767,221.909454 30.764315,192.291870 45.979496,164.222778 
	C55.244907,147.129868 65.692787,130.755173 78.522018,116.091148 
	C87.358932,105.990410 96.421623,96.032967 106.042328,86.689987 
	C113.228020,79.711739 121.447342,73.793884 129.264435,67.475662 
	C130.079407,66.816948 131.288620,66.646004 133.420944,65.820610 
	C131.621826,72.463623 129.799072,78.189499 128.541763,84.036949 
	C125.544525,97.976311 121.913620,111.865227 120.223991,125.976318 
	C118.457375,140.730377 118.093651,155.725388 118.224525,170.605331 
	C118.298790,179.048691 120.441231,187.500092 121.951569,195.894028 
	C122.766861,200.425186 124.607735,201.261047 128.278580,198.818130 
	C137.310089,192.807693 146.084091,186.409439 155.132568,180.425583 
	C169.084167,171.199188 182.510696,160.946945 199.227722,156.861908 
	C207.103683,154.937317 208.442734,155.489380 211.481567,163.015930 
	C216.030853,174.283478 220.396805,185.624924 224.922195,196.902252 
	C229.977890,209.501068 236.335373,221.375259 245.390671,231.589325 
	C246.798767,233.177612 249.259949,233.832291 251.732162,235.192764 
	C254.293564,230.292358 252.940491,225.474274 252.841217,220.964691 
	C252.696609,214.396515 251.269333,207.859039 251.083847,201.288834 
	C250.539764,182.017654 249.464233,162.700256 250.266769,143.470657 
	C250.971283,126.589600 253.931503,109.802658 255.895859,92.974205 
	C256.353180,89.056221 257.110199,85.135941 257.077148,81.222221 
	C257.068024,80.140640 254.545670,78.016174 253.456039,78.184113 
	C247.341751,79.126549 241.020203,79.868675 235.313065,82.081436 
	C221.379059,87.483887 207.791168,93.772003 193.962784,99.457535 
	C188.544403,101.685303 188.150497,101.344063 189.041687,95.567436 
	C192.231674,74.890076 196.297134,54.470291 207.275055,36.148026 
	C212.540817,27.359407 220.210480,22.117786 229.804642,18.869829 
	C244.063828,14.042595 258.618805,10.689801 273.616882,10.076727 
	C298.157104,9.073602 322.755554,7.536372 347.267578,8.275331 
	C381.049744,9.293756 414.378845,14.456397 446.400879,26.009005 
	C468.586487,34.012905 489.706024,44.212132 509.557922,57.016792 
	C526.083801,67.676155 541.408936,79.762299 555.838440,93.166832 
	C579.975220,115.589111 599.742004,141.262115 616.011230,169.826660 
	C632.616089,198.980667 643.496399,230.184570 649.812317,262.993195 
	C653.781677,283.612305 654.256287,304.641144 652.774658,325.443115 
	C649.623657,369.682281 634.142456,409.674744 607.296570,444.968109 
	C595.392151,460.618317 581.762207,474.841797 565.863892,486.630157 
	C556.101013,493.869110 545.948730,500.597198 536.405579,508.106567 
	C534.324158,509.744415 533.224792,513.714966 533.160645,516.643738 
	C532.883667,529.294800 533.256775,541.958374 533.209656,554.616699 
	C533.147705,571.236084 533.694397,588.058472 524.901917,603.111694 
	C518.389404,614.261597 509.599701,623.060059 496.529480,626.158936 
	C488.418793,628.081970 480.198059,630.461121 471.968262,630.711304 
	C463.172241,630.978760 453.739929,629.517151 447.026398,623.193298 
	C436.608795,613.380310 426.840546,602.704102 424.061859,587.841309 
	C422.954376,581.917725 423.618073,575.509338 421.705750,569.927979 
	C419.191101,562.588745 422.723663,555.537781 420.066223,547.540222 
	C412.408875,548.055603 403.760162,548.589844 395.120911,549.248108 
	C392.501007,549.447632 388.164520,549.231812 387.608948,550.508972 
	C385.424652,555.530151 383.357819,561.038757 383.198120,566.424255 
	C382.673096,584.132935 382.559540,601.880859 383.118866,619.587402 
	C383.727783,638.863464 374.036285,651.101746 358.167999,660.020935 
	C350.137329,664.534607 341.824615,666.871887 332.594391,666.050110 
	C329.122314,665.740967 325.549713,665.620605 322.109619,666.073120 
	C312.833313,667.293396 304.899994,664.404846 297.359436,658.701904 
M451.500488,219.039352 
	C451.295807,219.040634 451.091156,219.041916 450.142029,219.378464 
	C449.525665,219.576401 448.915161,219.926117 448.292114,219.950211 
	C430.211334,220.649551 413.304718,225.368439 397.736572,234.674316 
	C376.891327,247.134583 362.882507,265.235931 355.213501,288.020416 
	C349.728485,304.316315 348.746277,321.191406 350.881104,338.359528 
	C352.844421,354.148407 357.763885,368.801086 366.128357,382.197662 
	C377.908630,401.065033 394.109558,414.864227 415.137695,422.541229 
	C435.645477,430.028229 456.799377,430.976135 478.006714,426.774628 
	C500.354126,422.347260 519.609558,412.251007 534.454285,394.213593 
	C548.272705,377.423096 555.061035,357.963745 556.817749,336.851440 
	C558.843445,312.506592 553.813782,289.352112 541.510193,267.973969 
	C533.888794,254.731400 523.921387,243.577438 511.242004,235.167999 
	C493.394989,223.331177 473.298248,219.017273 451.500488,219.039352 
M228.481461,318.985626 
	C227.511871,318.075684 226.631393,317.041077 225.559250,316.274597 
	C210.333664,305.389465 193.205551,300.845764 174.713974,302.147247 
	C165.934814,302.765137 157.226196,304.506042 149.313431,309.091125 
	C138.643295,315.273926 130.264801,323.680573 124.236359,334.310028 
	C111.609482,356.574005 107.204216,379.937622 117.359901,404.288513 
	C120.776337,412.480255 126.155128,420.043030 136.195847,421.573639 
	C144.806000,422.886108 153.470306,424.833923 162.104370,424.801910 
	C182.984299,424.724609 203.868179,423.828918 224.735138,422.913605 
	C235.433594,422.444336 242.757706,415.814606 248.115265,407.361908 
	C258.073578,391.650543 257.877563,374.644440 253.128540,357.318329 
	C248.989075,342.216064 240.550400,329.852295 228.481461,318.985626 
z"/>
<path fill="#FF741F" opacity="1.000000" stroke="none" 
	d="
M132.349518,65.726318 
	C132.313385,65.497643 132.406464,65.410515 132.499542,65.323387 
	C132.585342,65.417648 132.740509,65.514313 132.737350,65.605476 
	C132.734207,65.695831 132.571487,65.780640 132.349518,65.726318 
z"/>
<path fill="#47704C" opacity="1.000000" stroke="none" 
	d="
M452.114471,219.042374 
	C473.298248,219.017273 493.394989,223.331177 511.242004,235.167999 
	C523.921387,243.577438 533.888794,254.731400 541.510193,267.973969 
	C553.813782,289.352112 558.843445,312.506592 556.817749,336.851440 
	C555.061035,357.963745 548.272705,377.423096 534.454285,394.213593 
	C519.609558,412.251007 500.354126,422.347260 478.006714,426.774628 
	C456.799377,430.976135 435.645477,430.028229 415.137695,422.541229 
	C394.109558,414.864227 377.908630,401.065033 366.128357,382.197662 
	C357.763885,368.801086 352.844421,354.148407 350.881104,338.359528 
	C348.746277,321.191406 349.728485,304.316315 355.213501,288.020416 
	C362.882507,265.235931 376.891327,247.134583 397.736572,234.674316 
	C413.304718,225.368439 430.211334,220.649551 448.292114,219.950211 
	C448.915161,219.926117 449.525665,219.576401 450.621521,219.428802 
	C451.438812,219.333542 451.776642,219.187958 452.114471,219.042374 
z"/>
<path fill="#47704C" opacity="1.000000" stroke="none" 
	d="
M228.734467,319.235016 
	C240.550400,329.852295 248.989075,342.216064 253.128540,357.318329 
	C257.877563,374.644440 258.073578,391.650543 248.115265,407.361908 
	C242.757706,415.814606 235.433594,422.444336 224.735138,422.913605 
	C203.868179,423.828918 182.984299,424.724609 162.104370,424.801910 
	C153.470306,424.833923 144.806000,422.886108 136.195847,421.573639 
	C126.155128,420.043030 120.776337,412.480255 117.359901,404.288513 
	C107.204216,379.937622 111.609482,356.574005 124.236359,334.310028 
	C130.264801,323.680573 138.643295,315.273926 149.313431,309.091125 
	C157.226196,304.506042 165.934814,302.765137 174.713974,302.147247 
	C193.205551,300.845764 210.333664,305.389465 225.559250,316.274597 
	C226.631393,317.041077 227.511871,318.075684 228.734467,319.235016 
z"/>
<path fill="#FF741F" opacity="1.000000" stroke="none" 
	d="
M451.807495,219.040863 
	C451.776642,219.187958 451.438812,219.333542 450.993713,219.261169 
	C451.091156,219.041916 451.295807,219.040634 451.807495,219.040863 
z"/>
</svg>