<svg version="1.1" id="Layer_1" xmlns="http://www.w3.org/2000/svg" xmlns:xlink="http://www.w3.org/1999/xlink" x="0px" y="0px"
	 width="100%" viewBox="0 0 660 673" enable-background="new 0 0 660 673" xml:space="preserve">
<path fill="#FFFFFF" opacity="1.000000" stroke="none" 
	d="
M661.000000,265.000000 
	C661.000000,401.666656 661.000000,537.833313 661.000000,674.000000 
	C441.000031,674.000000 221.000092,674.000000 1.000096,674.000000 
	C1.000064,449.666748 1.000064,225.333466 1.000032,1.000156 
	C220.999893,1.000104 440.999786,1.000104 660.999878,1.000052 
	C661.000000,88.833336 661.000000,176.666672 661.000000,265.000000 
M361.939728,657.576294 
	C362.567291,657.056396 363.140625,656.446716 363.830597,656.030090 
	C375.116943,649.214722 382.288635,639.476624 382.862823,626.165344 
	C383.465515,612.193115 382.880341,598.173401 383.042664,584.177063 
	C383.141815,575.627930 383.211365,567.028503 384.228973,558.564026 
	C384.649384,555.066833 384.997559,549.632812 390.038635,549.150452 
	C399.066040,548.286560 408.182373,548.374390 417.257690,547.976196 
	C420.088257,547.851990 420.991669,549.050049 421.057648,551.808472 
	C421.207214,558.062012 421.644440,564.309509 422.004364,570.557129 
	C422.691895,582.491577 425.796875,593.778320 431.690430,604.172241 
	C438.832336,616.767700 448.756653,626.057495 463.243652,629.707397 
	C471.557037,631.801880 479.751007,631.023804 487.887360,628.976501 
	C501.746429,625.489136 513.966675,619.334167 522.369019,607.172241 
	C529.794189,596.424683 532.675049,584.232239 532.915405,571.469788 
	C533.251160,553.645142 532.880920,535.807983 533.085693,517.979309 
	C533.135559,513.641724 533.427368,509.424042 538.027527,506.289581 
	C550.448792,497.825867 562.981689,489.371613 574.434021,479.688080 
	C583.907410,471.677856 592.608582,462.484985 600.371338,452.790741 
	C609.530396,441.352814 618.161926,429.305542 625.516541,416.647675 
	C641.798584,388.625153 650.660889,357.925079 652.753052,325.731720 
	C654.490051,299.004547 652.734375,272.329132 646.115112,246.059540 
	C637.834595,213.196793 624.851196,182.498367 606.526733,154.026825 
	C591.985901,131.434128 575.515320,110.389442 555.121094,92.786110 
	C542.322815,81.739250 529.129578,71.080742 515.500244,61.084232 
	C499.908142,49.648129 482.598022,41.072056 464.864441,33.365593 
	C443.835205,24.226944 422.033966,17.897936 399.452026,13.914164 
	C377.597107,10.058633 355.613953,8.164674 333.456299,8.013781 
	C321.958313,7.935480 310.457611,7.878709 298.961487,8.044085 
	C291.706879,8.148445 284.390717,8.175702 277.222687,9.136615 
	C265.522522,10.705072 253.779205,12.423169 242.325455,15.198165 
	C234.166870,17.174810 225.942795,20.087120 218.665863,24.204262 
	C208.630966,29.881788 204.092621,40.389015 200.057007,50.671928 
	C194.085312,65.888016 190.907333,81.841057 188.541092,97.966934 
	C188.158401,100.574966 188.745865,101.217789 191.514557,100.113068 
	C199.989944,96.731323 208.427917,93.246971 216.799316,89.615517 
	C229.761292,83.992714 242.390976,77.093178 257.977081,80.696068 
	C246.732056,131.734482 249.341370,183.744080 253.958160,237.395889 
	C250.840683,235.587509 248.316986,234.792618 246.753189,233.107132 
	C237.079025,222.680206 230.374390,210.371536 225.016052,197.308029 
	C219.849808,184.712891 214.857376,172.046219 209.833130,159.393280 
	C208.784271,156.751862 207.043640,155.229858 204.192734,156.038284 
	C198.051819,157.779617 191.409576,158.735992 185.977280,161.796844 
	C173.099548,169.052872 160.752518,177.262650 148.297928,185.253616 
	C140.062698,190.537399 132.012894,196.110138 123.156761,202.037628 
	C112.101265,154.943985 119.697540,110.361343 132.694427,65.783073 
	C123.379677,72.190170 114.402321,78.455223 106.740105,86.047531 
	C95.635468,97.050842 84.635971,108.365227 75.146927,120.739578 
	C64.491486,134.635010 54.866219,149.450470 46.059845,164.602112 
	C34.006714,185.339890 25.524641,207.706146 18.907690,230.807846 
	C13.264700,250.509155 9.318101,270.580170 8.271129,290.919647 
	C7.195935,311.807404 7.165576,332.827393 10.927145,353.648407 
	C14.458496,373.195099 19.744358,392.192383 28.100958,410.181641 
	C38.758080,433.123199 52.909462,453.605774 71.429604,471.141846 
	C86.778412,485.675140 103.459892,498.039185 122.567993,507.057892 
	C125.402466,508.395691 126.095573,510.244568 126.068596,513.224731 
	C125.923515,529.253296 125.656868,545.293945 126.131744,561.309692 
	C126.406166,570.565063 127.223801,579.950989 129.195602,588.972473 
	C131.678497,600.332336 137.002625,610.307190 146.889511,617.560486 
	C156.672455,624.737549 167.488083,628.289978 179.321304,630.109802 
	C195.326401,632.571289 208.634857,627.398804 219.232681,616.033630 
	C231.594131,602.777161 236.753937,586.158203 237.928207,568.320557 
	C238.370743,561.598267 238.000000,554.822449 238.000000,548.000000 
	C246.026825,548.000000 253.355835,547.903809 260.681305,548.024048 
	C270.153778,548.179504 273.893921,550.359741 274.968536,556.370667 
	C278.100128,573.887817 277.052734,591.523987 276.538849,609.166565 
	C276.318359,616.736450 276.541534,624.405029 277.524475,631.902771 
	C278.796600,641.606445 285.016205,648.546265 292.654755,654.062500 
	C301.510071,660.457642 309.884949,667.092896 322.334412,666.302673 
	C335.232758,665.484009 348.225922,666.787109 359.576752,658.823059 
	C360.093536,658.460388 360.718964,658.252441 361.939728,657.576294 
z"/>
<path fill="#000000" opacity="1.000000" stroke="none" 
	d="
M361.616760,657.774353 
	C360.718964,658.252441 360.093536,658.460388 359.576752,658.823059 
	C348.225922,666.787109 335.232758,665.484009 322.334412,666.302673 
	C309.884949,667.092896 301.510071,660.457642 292.654755,654.062500 
	C285.016205,648.546265 278.796600,641.606445 277.524475,631.902771 
	C276.541534,624.405029 276.318359,616.736450 276.538849,609.166565 
	C277.052734,591.523987 278.100128,573.887817 274.968536,556.370667 
	C273.893921,550.359741 270.153778,548.179504 260.681305,548.024048 
	C253.355835,547.903809 246.026825,548.000000 238.000000,548.000000 
	C238.000000,554.822449 238.370743,561.598267 237.928207,568.320557 
	C236.753937,586.158203 231.594131,602.777161 219.232681,616.033630 
	C208.634857,627.398804 195.326401,632.571289 179.321304,630.109802 
	C167.488083,628.289978 156.672455,624.737549 146.889511,617.560486 
	C137.002625,610.307190 131.678497,600.332336 129.195602,588.972473 
	C127.223801,579.950989 126.406166,570.565063 126.131744,561.309692 
	C125.656868,545.293945 125.923515,529.253296 126.068596,513.224731 
	C126.095573,510.244568 125.402466,508.395691 122.567993,507.057892 
	C103.459892,498.039185 86.778412,485.675140 71.429604,471.141846 
	C52.909462,453.605774 38.758080,433.123199 28.100958,410.181641 
	C19.744358,392.192383 14.458496,373.195099 10.927145,353.648407 
	C7.165576,332.827393 7.195935,311.807404 8.271129,290.919647 
	C9.318101,270.580170 13.264700,250.509155 18.907690,230.807846 
	C25.524641,207.706146 34.006714,185.339890 46.059845,164.602112 
	C54.866219,149.450470 64.491486,134.635010 75.146927,120.739578 
	C84.635971,108.365227 95.635468,97.050842 106.740105,86.047531 
	C114.402321,78.455223 123.379677,72.190170 132.694427,65.783073 
	C119.697540,110.361343 112.101265,154.943985 123.156761,202.037628 
	C132.012894,196.110138 140.062698,190.537399 148.297928,185.253616 
	C160.752518,177.262650 173.099548,169.052872 185.977280,161.796844 
	C191.409576,158.735992 198.051819,157.779617 204.192734,156.038284 
	C207.043640,155.229858 208.784271,156.751862 209.833130,159.393280 
	C214.857376,172.046219 219.849808,184.712891 225.016052,197.308029 
	C230.374390,210.371536 237.079025,222.680206 246.753189,233.107132 
	C248.316986,234.792618 250.840683,235.587509 253.958160,237.395889 
	C249.341370,183.744080 246.732056,131.734482 257.977081,80.696068 
	C242.390976,77.093178 229.761292,83.992714 216.799316,89.615517 
	C208.427917,93.246971 199.989944,96.731323 191.514557,100.113068 
	C188.745865,101.217789 188.158401,100.574966 188.541092,97.966934 
	C190.907333,81.841057 194.085312,65.888016 200.057007,50.671928 
	C204.092621,40.389015 208.630966,29.881788 218.665863,24.204262 
	C225.942795,20.087120 234.166870,17.174810 242.325455,15.198165 
	C253.779205,12.423169 265.522522,10.705072 277.222687,9.136615 
	C284.390717,8.175702 291.706879,8.148445 298.961487,8.044085 
	C310.457611,7.878709 321.958313,7.935480 333.456299,8.013781 
	C355.613953,8.164674 377.597107,10.058633 399.452026,13.914164 
	C422.033966,17.897936 443.835205,24.226944 464.864441,33.365593 
	C482.598022,41.072056 499.908142,49.648129 515.500244,61.084232 
	C529.129578,71.080742 542.322815,81.739250 555.121094,92.786110 
	C575.515320,110.389442 591.985901,131.434128 606.526733,154.026825 
	C624.851196,182.498367 637.834595,213.196793 646.115112,246.059540 
	C652.734375,272.329132 654.490051,299.004547 652.753052,325.731720 
	C650.660889,357.925079 641.798584,388.625153 625.516541,416.647675 
	C618.161926,429.305542 609.530396,441.352814 600.371338,452.790741 
	C592.608582,462.484985 583.907410,471.677856 574.434021,479.688080 
	C562.981689,489.371613 550.448792,497.825867 538.027527,506.289581 
	C533.427368,509.424042 533.135559,513.641724 533.085693,517.979309 
	C532.880920,535.807983 533.251160,553.645142 532.915405,571.469788 
	C532.675049,584.232239 529.794189,596.424683 522.369019,607.172241 
	C513.966675,619.334167 501.746429,625.489136 487.887360,628.976501 
	C479.751007,631.023804 471.557037,631.801880 463.243652,629.707397 
	C448.756653,626.057495 438.832336,616.767700 431.690430,604.172241 
	C425.796875,593.778320 422.691895,582.491577 422.004364,570.557129 
	C421.644440,564.309509 421.207214,558.062012 421.057648,551.808472 
	C420.991669,549.050049 420.088257,547.851990 417.257690,547.976196 
	C408.182373,548.374390 399.066040,548.286560 390.038635,549.150452 
	C384.997559,549.632812 384.649384,555.066833 384.228973,558.564026 
	C383.211365,567.028503 383.141815,575.627930 383.042664,584.177063 
	C382.880341,598.173401 383.465515,612.193115 382.862823,626.165344 
	C382.288635,639.476624 375.116943,649.214722 363.830597,656.030090 
	C363.140625,656.446716 362.567291,657.056396 361.616760,657.774353 
M351.437317,303.048737 
	C351.299438,316.341492 349.366852,329.918427 351.417145,342.864655 
	C355.085846,366.030640 365.464783,386.328003 383.066437,402.744659 
	C400.852356,419.333099 422.072754,427.232391 445.728058,428.778748 
	C455.798431,429.437103 466.155823,428.460022 476.158661,426.841156 
	C499.196259,423.112793 518.739685,412.864655 534.057129,394.634613 
	C548.131714,377.883728 554.782959,358.334198 556.827087,337.171570 
	C558.520386,319.640961 556.270386,302.219971 549.864319,285.697571 
	C543.172791,268.439026 533.497375,253.287796 518.917664,241.172928 
	C500.265869,225.674347 478.675049,219.425797 455.161346,219.231216 
	C445.858978,219.154251 436.461609,221.286758 427.237213,223.080383 
	C410.608154,226.313766 396.017792,233.898285 383.353729,245.155487 
	C374.970367,252.607529 367.847046,261.168640 362.589203,271.036926 
	C357.371124,280.830688 353.271729,291.141724 351.437317,303.048737 
M123.986153,414.476715 
	C127.495941,416.652252 130.757263,419.912689 134.565552,420.784912 
	C143.381027,422.803955 152.444672,424.645020 161.437500,424.797333 
	C180.660019,425.122894 199.908417,424.531006 219.130325,423.859863 
	C224.021057,423.689087 229.237427,422.629822 233.632614,420.555695 
	C243.518311,415.890503 249.401245,407.419525 253.026672,397.247467 
	C257.280212,385.313080 256.723572,373.340790 254.051834,361.174286 
	C249.928329,342.396606 239.665375,327.617218 224.727036,316.056824 
	C214.745560,308.332428 203.226242,304.402618 190.533875,302.770142 
	C178.894104,301.273041 167.683609,302.050476 156.846298,305.787933 
	C140.768463,311.332703 129.827164,323.178223 122.124893,337.818665 
	C113.382339,354.436432 109.731522,372.249329 113.065376,391.001709 
	C114.567848,399.452789 117.761955,407.325470 123.986153,414.476715 
z"/>
<path fill="#FFFFFF" opacity="1.000000" stroke="none" 
	d="
M351.696350,302.688141 
	C353.271729,291.141724 357.371124,280.830688 362.589203,271.036926 
	C367.847046,261.168640 374.970367,252.607529 383.353729,245.155487 
	C396.017792,233.898285 410.608154,226.313766 427.237213,223.080383 
	C436.461609,221.286758 445.858978,219.154251 455.161346,219.231216 
	C478.675049,219.425797 500.265869,225.674347 518.917664,241.172928 
	C533.497375,253.287796 543.172791,268.439026 549.864319,285.697571 
	C556.270386,302.219971 558.520386,319.640961 556.827087,337.171570 
	C554.782959,358.334198 548.131714,377.883728 534.057129,394.634613 
	C518.739685,412.864655 499.196259,423.112793 476.158661,426.841156 
	C466.155823,428.460022 455.798431,429.437103 445.728058,428.778748 
	C422.072754,427.232391 400.852356,419.333099 383.066437,402.744659 
	C365.464783,386.328003 355.085846,366.030640 351.417145,342.864655 
	C349.366852,329.918427 351.299438,316.341492 351.696350,302.688141 
z"/>
<path fill="#FFFFFF" opacity="1.000000" stroke="none" 
	d="
M123.721344,414.224548 
	C117.761955,407.325470 114.567848,399.452789 113.065376,391.001709 
	C109.731522,372.249329 113.382339,354.436432 122.124893,337.818665 
	C129.827164,323.178223 140.768463,311.332703 156.846298,305.787933 
	C167.683609,302.050476 178.894104,301.273041 190.533875,302.770142 
	C203.226242,304.402618 214.745560,308.332428 224.727036,316.056824 
	C239.665375,327.617218 249.928329,342.396606 254.051834,361.174286 
	C256.723572,373.340790 257.280212,385.313080 253.026672,397.247467 
	C249.401245,407.419525 243.518311,415.890503 233.632614,420.555695 
	C229.237427,422.629822 224.021057,423.689087 219.130325,423.859863 
	C199.908417,424.531006 180.660019,425.122894 161.437500,424.797333 
	C152.444672,424.645020 143.381027,422.803955 134.565552,420.784912 
	C130.757263,419.912689 127.495941,416.652252 123.721344,414.224548 
z"/>
</svg>