<svg version="1.2" xmlns="http://www.w3.org/2000/svg" viewBox="0 0 660 673" width="660" height="673">
	<style>
		.s0 { fill: #000000 } 
	</style>
	<path id="Path 0" fill-rule="evenodd" class="s0" d="m325.5 7.53c17.05 0.22 35.73 0.86 41.5 1.43 5.77 0.57 16.8 1.98 24.5 3.12 7.7 1.14 19.85 3.58 27 5.41 7.15 1.84 17.95 5.01 24 7.06 6.05 2.04 16.85 6.26 24 9.38 7.15 3.12 18.85 8.97 26 13.01 7.15 4.04 16.82 9.91 21.5 13.06 4.67 3.15 13.67 9.73 19.99 14.61 6.31 4.89 18.49 15.86 27.06 24.39 8.56 8.53 19.33 20.22 23.92 26 4.59 5.78 12.67 17.03 17.94 25.02 5.27 7.99 12.58 20.36 16.24 27.5 3.66 7.14 8.55 17.48 10.88 22.98 2.33 5.5 6.16 15.85 8.51 23 2.35 7.15 5.63 19.3 7.29 27 1.66 7.7 3.6 18.27 4.32 23.5 0.75 5.49 1.31 18.99 1.31 32-0.01 16.74-0.47 25.44-1.81 34-0.99 6.32-3.3 17.35-5.14 24.5-1.83 7.15-5.26 17.95-7.61 24-2.35 6.05-6.7 15.73-9.68 21.5-2.97 5.77-8.69 15.45-12.7 21.5-4.01 6.05-11.54 15.95-16.72 22-5.19 6.05-13.01 14.32-17.37 18.38-4.36 4.07-11.53 10.28-15.93 13.82-4.4 3.53-13.17 9.88-19.5 14.1-6.33 4.22-11.73 7.83-12 8.02-0.27 0.19-0.77 16.39-1.09 36.01-0.52 31.62-0.82 36.52-2.63 43.17-1.12 4.13-3.51 10.42-5.31 14-1.84 3.65-5.62 8.8-8.62 11.75-3.46 3.39-8.27 6.65-13.6 9.21-4.54 2.18-11.18 4.64-14.75 5.48-3.57 0.84-9.88 1.55-14 1.57-4.7 0.02-9.93-0.7-14-1.94-3.57-1.09-8.98-3.73-12-5.89-3.02-2.15-7.13-5.88-9.12-8.29-2-2.42-5.23-7.31-7.2-10.89-1.96-3.58-4.77-10.55-6.25-15.5-2.28-7.65-2.74-11.29-3.43-39.5l-16.25-0.03c-14.3-0.03-16.46 0.18-17.99 1.75-0.95 0.98-2.5 4.03-3.43 6.78-1.46 4.28-1.72 9.9-1.84 39-0.12 28.06-0.42 34.96-1.76 39.5-0.88 3.02-3.13 7.52-5 10-1.86 2.48-5.6 6.15-8.31 8.16-2.7 2.01-9.19 5.73-23.92 12.87l-32 0.02-10.5-6.89c-5.77-3.8-12.5-9.1-14.95-11.78-2.45-2.68-5.37-6.9-6.49-9.38-1.89-4.18-2.08-7.13-2.64-41.5-0.38-23.58-1.02-38.36-1.76-40.75-0.64-2.06-2.06-4.65-3.16-5.75-1.84-1.84-3.33-2-34.5-2l-0.09 13.25c-0.06 10.04-0.61 15.43-2.28 22.25-1.22 4.95-3.99 12.71-6.17 17.25-2.68 5.58-5.98 10.39-10.21 14.85-4.54 4.79-8.29 7.59-13.7 10.25-7.4 3.62-7.55 3.65-20 3.6-11.68-0.04-13.14-0.27-21.05-3.28-4.68-1.79-10.53-4.54-13-6.12-2.47-1.59-6.64-5.17-9.25-7.97-2.61-2.79-6.3-8.34-8.2-12.33-1.89-3.99-4.23-10.85-5.2-15.25-1.49-6.79-1.72-12.67-1.57-39 0.11-17.05-0.14-32.29-0.54-33.88-0.6-2.31-2.5-3.86-9.74-7.89-4.95-2.75-12.83-7.57-17.5-10.71-4.67-3.13-12.55-9.09-17.5-13.23-4.95-4.14-11.92-10.62-15.5-14.41-3.58-3.79-9.49-10.71-13.14-15.38-3.65-4.68-8.88-12.1-11.61-16.5-2.74-4.4-7.23-12.5-9.98-18-2.76-5.5-6.69-14.5-8.74-20-2.06-5.5-5.21-15.85-7.03-23-1.81-7.15-4.05-18.18-4.98-24.5-0.93-6.32-1.93-20.05-2.21-30.5-0.39-13.95-0.08-23.12 1.14-34.5 0.91-8.52 2.76-21.01 4.1-27.75 1.35-6.74 3.85-17.31 5.56-23.5 1.71-6.19 5.4-17.55 8.21-25.25 2.81-7.7 9.03-21.87 13.84-31.5 4.8-9.62 11.72-22.22 15.38-28 3.66-5.78 10.39-15.45 14.96-21.5 4.56-6.05 12.71-15.53 18.09-21.07 5.38-5.54 13.41-13.58 17.84-17.87 4.44-4.29 11.78-10.68 16.32-14.18 4.54-3.51 8.49-6.27 8.77-6.13 0.29 0.14-1.03 5.65-2.93 12.25-1.9 6.6-4.59 17.18-5.97 23.5-1.39 6.33-3.18 16.45-3.99 22.5-0.81 6.05-1.77 16.18-2.14 22.5-0.36 6.32-0.17 17.13 0.43 24 0.6 6.88 1.87 16.44 2.83 21.26 1.27 6.35 2.16 8.77 3.25 8.77 0.83 0.01 5.1-2.38 9.5-5.31 4.4-2.92 15.65-10.51 25-16.87 9.35-6.35 21.28-13.6 26.5-16.11 5.22-2.52 11.86-5.06 14.75-5.66 2.89-0.59 6.01-0.74 6.94-0.33 0.93 0.41 2.78 3.22 4.1 6.25 1.32 3.03 5.34 12.93 8.92 22 3.59 9.07 8.1 19.65 10.02 23.5 1.93 3.85 5.44 9.93 7.82 13.5 2.37 3.57 6.81 8.97 9.86 12 3.05 3.03 5.89 5.13 6.32 4.68 0.42-0.45 0.19-8.1-0.51-17-0.71-8.9-1.73-26.3-2.26-38.68-0.54-12.37-0.76-26.55-0.49-31.5 0.26-4.95 0.74-13.95 1.06-20 0.32-6.05 1.43-17.07 2.46-24.5 1.03-7.42 2.57-16.87 3.42-21 1.21-5.86 1.28-7.66 0.32-8.23-0.68-0.41-2.36-0.74-3.73-0.74-1.38 0-5.31 0.67-8.75 1.48-3.44 0.82-10.64 3.25-16 5.41-5.36 2.16-15.26 6.43-22 9.5-6.74 3.07-13.61 5.92-15.27 6.33-2.7 0.67-3.02 0.51-3-1.5 0.01-1.24 1.13-7.76 2.48-14.5 1.35-6.74 3.62-16.3 5.04-21.25 1.43-4.95 4.55-13.05 6.95-18 2.39-4.95 6.31-11.2 8.7-13.89 2.39-2.68 6.15-5.93 8.35-7.21 2.2-1.28 7.37-3.47 11.5-4.87 4.12-1.41 11.55-3.41 16.5-4.45 4.95-1.04 12.82-2.41 17.5-3.05 4.68-0.63 13.23-1.54 19-2.02 5.77-0.48 24.45-0.69 41.5-0.48zm98.5 214.4c-2.48 0.65-7.65 2.35-11.5 3.77-3.85 1.42-9.93 4.2-13.5 6.18-3.57 1.98-9.76 6.19-13.75 9.36-3.99 3.17-9.76 8.8-12.83 12.51-3.06 3.71-7.29 9.68-9.39 13.25-2.1 3.57-5.01 9.43-6.47 13-1.45 3.57-3.53 9.87-4.6 14-1.08 4.12-2.45 12-3.04 17.5-0.78 7.22-0.77 13.06 0.02 21 0.61 6.05 2.04 14.6 3.18 19 1.14 4.4 3.74 11.82 5.76 16.5 2.03 4.67 5.73 11.65 8.22 15.5 2.5 3.85 7.21 9.88 10.47 13.39 3.26 3.52 8.63 8.45 11.93 10.97 3.3 2.52 9.6 6.46 14 8.77 4.4 2.3 11.6 5.31 16 6.68 4.4 1.36 11.37 3.03 15.5 3.7 4.83 0.79 13.2 1.04 23.5 0.71 12.55-0.4 18.05-1.04 25.5-2.97 5.23-1.36 13.32-4.24 18-6.41 4.68-2.17 10.75-5.47 13.5-7.33 2.75-1.86 8.09-6.34 11.86-9.95 3.78-3.61 8.8-9.26 11.17-12.56 2.37-3.3 6.13-9.83 8.35-14.5 2.23-4.68 5.15-12.33 6.49-17 1.35-4.68 2.92-13.45 3.49-19.5 0.58-6.05 0.81-14.15 0.53-18-0.29-3.85-1.2-10.83-2.03-15.5-0.82-4.68-2.59-11.76-3.93-15.75-1.34-3.99-4.41-11.19-6.82-16-2.41-4.81-6.4-11.45-8.86-14.75-2.46-3.3-6.9-8.44-9.86-11.41-2.96-2.98-8.09-7.42-11.39-9.86-3.3-2.45-8.93-5.92-12.5-7.72-3.57-1.8-10.1-4.41-14.5-5.8-4.4-1.39-11.49-3.02-15.75-3.62-4.26-0.6-11.91-1.05-17-0.99-5.09 0.05-12.85 0.67-17.25 1.37-4.4 0.69-10.02 1.8-12.5 2.46zm-269 82.71c-2.47 0.93-7.2 3.37-10.5 5.42-3.3 2.06-8.65 6.59-11.89 10.09-3.23 3.49-7.6 9.28-9.7 12.85-2.1 3.57-5 9.65-6.44 13.5-1.44 3.85-3.26 10.04-4.05 13.75-0.78 3.71-1.42 11.36-1.43 17 0 6.1 0.63 12.68 1.57 16.25 0.86 3.3 2.7 8.25 4.1 11 1.39 2.75 3.77 6.57 5.27 8.5 1.51 1.93 4.73 4.51 7.15 5.74 2.85 1.45 8.51 2.79 15.92 3.78 6.32 0.84 20.28 1.7 31 1.92 10.72 0.21 25.13-0.02 32-0.5 6.87-0.49 14.97-1.39 18-2.01 3.03-0.61 7.3-2.14 9.5-3.4 2.2-1.26 5.69-4.14 7.75-6.41 2.06-2.27 4.83-6.26 6.15-8.87 1.31-2.61 3.18-7.45 4.15-10.75 1.2-4.08 1.73-9.2 1.68-16-0.05-6.73-0.76-12.62-2.17-18-1.16-4.4-3.88-11.6-6.05-16-2.17-4.4-6.44-11.04-9.48-14.75-3.04-3.71-8.12-8.79-11.28-11.29-3.16-2.49-8.9-6.09-12.75-8-3.85-1.9-10.6-4.37-15-5.47-5.84-1.47-10.97-1.98-19-1.89-6.05 0.06-13.03 0.51-15.5 0.99-2.47 0.47-6.53 1.62-9 2.55z"/>
</svg>